<?xml version="1.0" encoding="UTF-8"?>
<svg width="360px" height="390px" viewBox="0 0 360 390" version="1.1" xmlns="http://www.w3.org/2000/svg" xmlns:xlink="http://www.w3.org/1999/xlink">
    <title>head/hair/short/01</title>
    <g id="head/hair/short/01" stroke="none" stroke-width="1" fill="none" fill-rule="evenodd">
        <path d="M260,149.2489 L260,144.9999 C260,129.6539 255.671,115.3219 248.18,103.1449 C241.237,91.8599 231.567,82.4439 220.095,75.7839 C208.304,68.9379 194.615,64.9999 180,64.9999 C165.384,64.9999 151.696,68.9379 139.905,75.7839 C128.433,82.4439 118.763,91.8599 111.82,103.1449 C104.329,115.3219 100,129.6539 100,144.9999 L100,149.2489 C104.172,149.8789 107.919,151.7839 110.828,154.5719 C120.042,145.3239 127.462,134.2899 132.51,122.0229 C146.638,129.6619 162.812,133.9999 180,133.9999 C197.188,133.9999 213.362,129.6619 227.49,122.0229 C232.537,134.2899 239.959,145.3239 249.172,154.5719 C252.081,151.7839 255.828,149.8789 260,149.2489" id="short-01" fill="#00004D"></path>
    </g>
</svg>