<?xml version="1.0" encoding="UTF-8"?>
<svg width="360px" height="390px" viewBox="0 0 360 390" version="1.1" xmlns="http://www.w3.org/2000/svg" xmlns:xlink="http://www.w3.org/1999/xlink">
    <title>head/hair/short/02</title>
    <g id="head/hair/short/02" stroke="none" stroke-width="1" fill="none" fill-rule="evenodd">
        <path d="M260,149.2489 L260,144.9999 C260,129.6539 255.672,115.3219 248.18,103.1449 C241.237,91.8599 231.567,82.4439 220.095,75.7839 C208.304,68.9379 194.616,64.9999 180,64.9999 C165.385,64.9999 151.696,68.9379 139.905,75.7839 C128.433,82.4439 118.763,91.8599 111.82,103.1449 C104.329,115.3219 100,129.6539 100,144.9999 L100,149.2489 C105.548,150.0859 110.348,153.1849 113.418,157.5949 L121.002,126.2549 C123.174,117.2799 131.207,110.9589 140.441,110.9589 L219.56,110.9589 C228.793,110.9589 236.826,117.2799 238.998,126.2549 L246.582,157.5949 C249.652,153.1849 254.452,150.0859 260,149.2489" id="short-02" fill="#00004D"></path>
    </g>
</svg>