<?xml version="1.0" encoding="UTF-8"?>
<svg width="360px" height="390px" viewBox="0 0 360 390" version="1.1" xmlns="http://www.w3.org/2000/svg" xmlns:xlink="http://www.w3.org/1999/xlink">
    <title>head/hair/short/04</title>
    <g id="head/hair/short/04" stroke="none" stroke-width="1" fill="none" fill-rule="evenodd">
        <path d="M250,153.8202 C252.777,151.4392 256.214,149.8202 260,149.2492 L260,145.0002 C260,129.6542 255.672,115.3222 248.18,103.1452 C241.237,91.8602 231.567,82.4442 220.095,75.7842 C208.304,68.9382 194.616,65.0002 180,65.0002 C165.385,65.0002 151.696,68.9382 139.905,75.7842 C128.433,82.4442 118.763,91.8602 111.82,103.1452 C104.329,115.3222 100,129.6542 100,145.0002 L100,149.2492 C103.786,149.8202 107.223,151.4392 110,153.8202 L110,145.0002 C110,118.0652 125.222,94.6972 147.524,82.9922 C156.261,90.4712 167.598,95.0002 180,95.0002 C192.402,95.0002 203.739,90.4712 212.476,82.9932 C234.778,94.6982 250,118.0652 250,145.0002 L250,153.8202 Z" id="short-04" fill="#00004D"></path>
    </g>
</svg>