<?xml version="1.0" encoding="UTF-8"?>
<svg width="360px" height="390px" viewBox="0 0 360 390" version="1.1" xmlns="http://www.w3.org/2000/svg" xmlns:xlink="http://www.w3.org/1999/xlink">
    <title>head/hair/short/06</title>
    <g id="head/hair/short/06" stroke="none" stroke-width="1" fill="none" fill-rule="evenodd">
        <path d="M249.1651,154.579 C252.0751,151.787 255.8241,149.879 260.0001,149.249 L260.0001,145 C260.0001,129.654 255.6711,115.322 248.1801,103.145 C241.2371,91.86 231.5671,82.444 220.0951,75.784 C208.3041,68.938 194.6151,65 180.0001,65 C165.3851,65 151.6961,68.938 139.9051,75.784 C128.4331,82.444 118.7631,91.86 111.8201,103.145 C104.3281,115.322 100.0001,129.654 100.0001,145 L100.0001,149.249 C104.1761,149.879 107.9251,151.787 110.8351,154.579 L110.8351,154.145 C110.8351,144.232 115.2541,134.834 122.8891,128.511 C133.2941,119.892 147.8771,118.418 159.7961,124.78 C172.4221,131.519 187.5781,131.519 200.2041,124.78 C212.1231,118.418 226.7061,119.892 237.1111,128.511 C244.7461,134.834 249.1651,144.232 249.1651,154.145 L249.1651,154.579 Z" id="short-06" fill="#00004D"></path>
    </g>
</svg>