<?xml version="1.0" encoding="UTF-8"?>
<svg width="360px" height="390px" viewBox="0 0 360 390" version="1.1" xmlns="http://www.w3.org/2000/svg" xmlns:xlink="http://www.w3.org/1999/xlink">
    <title>head/hair/short/07</title>
    <g id="head/hair/short/07" stroke="none" stroke-width="1" fill="none" fill-rule="evenodd">
        <path d="M249.1651,154.5788 C252.0751,151.7868 255.8241,149.8788 260.0001,149.2488 L260.0001,144.9998 L260.0001,109.7218 C260.0001,94.5698 251.4391,80.7198 237.8891,73.9438 L188.9441,49.4728 C183.3131,46.6568 176.6861,46.6568 171.0561,49.4728 L122.1111,73.9438 C108.5611,80.7198 100.0001,94.5698 100.0001,109.7218 L100.0001,149.2488 C104.1761,149.8788 107.9251,151.7868 110.8351,154.5788 L110.8351,154.1448 C110.8351,144.2318 115.2541,134.8338 122.8891,128.5108 C133.2941,119.8918 147.8771,118.4178 159.7961,124.7798 C172.4221,131.5188 187.5781,131.5188 200.2041,124.7798 C212.1231,118.4178 226.7061,119.8918 237.1111,128.5108 C244.7461,134.8338 249.1651,144.2318 249.1651,154.1448 L249.1651,154.5788 Z" id="short-07" fill="#00004D"></path>
    </g>
</svg>