<?xml version="1.0" encoding="UTF-8"?>
<svg width="360px" height="390px" viewBox="0 0 360 390" version="1.1" xmlns="http://www.w3.org/2000/svg" xmlns:xlink="http://www.w3.org/1999/xlink">
    <title>head/hair/short/09</title>
    <g id="head/hair/short/09" stroke="none" stroke-width="1" fill="none" fill-rule="evenodd">
        <path d="M260,149.2489 L260,144.9999 C260,138.8429 259.292,132.8529 257.974,127.0949 C267.781,119.7699 273.594,111.8849 273.594,106.1159 C273.594,91.2609 238.539,64.9999 195.297,64.9999 L180,64.9999 C165.385,64.9999 151.696,68.9379 139.905,75.7839 C128.433,82.4439 118.763,91.8599 111.82,103.1449 C104.328,115.3219 100,129.6539 100,144.9999 L100,149.2489 C105.7,150.1089 110.613,153.3539 113.67,157.9579 L124.048,123.1589 C136.385,137.3579 163.637,147.2319 195.297,147.2319 C212.014,147.2319 227.494,143.1969 240.211,137.4379 L246.33,157.9579 C249.387,153.3539 254.3,150.1089 260,149.2489" id="short-09" fill="#00004D"></path>
    </g>
</svg>