<?xml version="1.0" encoding="UTF-8"?>
<svg width="360px" height="390px" viewBox="0 0 360 390" version="1.1" xmlns="http://www.w3.org/2000/svg" xmlns:xlink="http://www.w3.org/1999/xlink">
    <title>head/hair/short/11</title>
    <g id="head/hair/short/11" stroke="none" stroke-width="1" fill="none" fill-rule="evenodd">
        <path d="M252.25,141.695 L252.25,152.153 C255.357,150.167 259.039,149 263,149 C263.676,149 264.342,149.036 265,149.101 L265,141.906 C265,125.601 260.4,110.374 252.441,97.435 C245.064,85.445 234.791,75.44 222.601,68.364 C210.072,61.091 195.529,56.906 180,56.906 C164.471,56.906 149.928,61.091 137.399,68.364 C125.21,75.44 114.936,85.445 107.559,97.435 C99.6,110.374 95,125.6 95,141.906 L95,149.101 C95.658,149.036 96.324,149 97,149 C100.961,149 104.643,150.166 107.75,152.153 L107.75,141.757 C120.61,138.577 133.799,136.23 147.254,134.769 L160.869,110.002 L160.869,133.603 C167.195,133.206 173.573,133 180,133 C204.819,133 228.935,136.013 252,141.695 L252.25,141.695 Z" id="short-11" fill="#00004D"></path>
    </g>
</svg>