<?xml version="1.0" encoding="UTF-8"?>
<svg width="360px" height="390px" viewBox="0 0 360 390" version="1.1" xmlns="http://www.w3.org/2000/svg" xmlns:xlink="http://www.w3.org/1999/xlink">
    <title>head/hair/short/13</title>
    <g id="head/hair/short/13" stroke="none" stroke-width="1" fill="none" fill-rule="evenodd">
        <path d="M260,149.2488 L260,144.9998 C260,132.0058 256.898,119.7378 251.4,108.8898 C253.881,106.2868 256.209,103.5048 258.352,100.5378 L261.553,96.1048 C265.904,90.0818 262.398,81.5858 255.066,80.3828 L190.988,69.8688 C143.503,62.0778 100.359,98.7208 100.359,146.8398 L100.359,149.3038 C105.782,150.2238 110.463,153.3088 113.465,157.6578 L122.513,121.7168 L178.672,132.3098 C199.449,136.2278 220.49,131.7138 237.535,120.4788 L246.805,157.2988 C249.881,153.0478 254.58,150.0658 260,149.2488" id="short-13" fill="#00004D"></path>
    </g>
</svg>