<?xml version="1.0" encoding="UTF-8"?>
<svg width="320px" height="320px" viewBox="0 0 320 320" version="1.1" xmlns="http://www.w3.org/2000/svg" xmlns:xlink="http://www.w3.org/1999/xlink">
    <title>body/dark-brown</title>
    <g id="Page-1" stroke="none" stroke-width="1" fill="none" fill-rule="evenodd">
        <g id="body/dark-brown" transform="translate(0.000000, 0.000000)">
            <path d="M290.963,248.235 C280.351,232.884 264.706,221.726 246.736,216.692 L204.999,205 L204.999,175.001 C222.643,161.747 234.23,140.89 234.942,117.297 C237.408,118.384 240.13,119 243,119 C254.045,119 263,110.046 263,99 C263,87.954 254.045,79 243,79 C240.153,79 237.451,79.603 235,80.675 L235,75 C235,33.578 201.421,0 160,0 L159.999,0 C118.578,0 85,33.578 85,75 L85,80.675 C82.548,79.603 79.846,79 77,79 C65.954,79 57,87.954 57,99 C57,110.046 65.954,119 77,119 C79.869,119 82.591,118.385 85.058,117.297 C85.769,140.89 97.356,161.747 114.999,175.001 L114.999,205 L73.263,216.692 C55.293,221.726 39.648,232.884 29.036,248.235 L5.68434189e-14,290.24 L5.68434189e-14,320 L320,320 L320,290.24 L290.963,248.235 Z" id="Fill-1" fill="#B5683C"></path>
            <path d="M159.9991,189.9996 C150.7511,189.9996 141.8991,188.3156 133.7191,185.2546 C145.3531,192.6866 159.1691,196.9996 173.9991,196.9996 C185.0591,196.9996 195.5481,194.5866 204.9991,190.2896 L204.9991,175.0006 C192.4641,184.4166 176.8841,189.9996 159.9991,189.9996 Z" id="Fill-4" fill="#A3420B"></path>
            <path d="M87.6086,101.9185 C87.8636,100.9895 88.0006,100.0105 88.0006,99.0005 C88.0006,92.9255 83.0756,88.0005 77.0006,88.0005 C75.4816,88.0005 74.0346,88.3085 72.7186,88.8645" id="Stroke-6" stroke="#00004D" stroke-width="2" stroke-linecap="round" stroke-linejoin="round"></path>
            <path d="M232.3913,101.9185 C232.1363,100.9895 232.0003,100.0105 232.0003,99.0005 C232.0003,92.9255 236.9253,88.0005 243.0003,88.0005 C244.5183,88.0005 245.9653,88.3085 247.2823,88.8645" id="Stroke-8" stroke="#00004D" stroke-width="2" stroke-linecap="round" stroke-linejoin="round"></path>
        </g>
    </g>
</svg>