<?xml version="1.0" encoding="UTF-8"?>
<svg width="126px" height="40px" viewBox="0 0 126 40" version="1.1" xmlns="http://www.w3.org/2000/svg" xmlns:xlink="http://www.w3.org/1999/xlink">
    <title>accessories/glasses-03</title>
    <g id="Page-1" stroke="none" stroke-width="1" fill="none" fill-rule="evenodd">
        <g id="accessories/glasses-03" fill="#00004D">
            <path d="M96,35.442 C86.074,35.442 78,27.368 78,17.442 C78,5.019 90.588,3.677 96,3.677 C101.412,3.677 114,5.019 114,17.442 C114,27.368 105.926,35.442 96,35.442 M30,35.442 C20.074,35.442 12,27.368 12,17.442 C12,5.019 24.588,3.677 30,3.677 C35.412,3.677 48,5.019 48,17.442 C48,27.368 39.926,35.442 30,35.442 M124,6.303 L116.105,6.303 L110.708,2.106 C108.953,0.741 106.793,0 104.569,0 L87.144,0 C84.773,0 82.48,0.841 80.673,2.376 L73,8.887 L63.928,4.136 C63.347,3.833 62.653,3.833 62.072,4.136 L53,8.887 L45.327,2.376 C43.52,0.841 41.227,0 38.856,0 L21.431,0 C19.207,0 17.047,0.741 15.292,2.106 L9.895,6.303 L2,6.303 C0.896,6.303 0,7.199 0,8.303 L0,10.139 C0,11.244 0.896,12.139 2,12.139 L4,12.139 C5.657,12.139 7,13.482 7,15.139 L7,16.115 C7,28.275 16.265,38.678 28.396,39.505 C38.969,40.226 48.167,33.755 51.583,24.507 L51.584,24.509 L55.047,16.413 C56.409,13.229 59.537,11.165 63,11.165 C66.463,11.165 69.591,13.229 70.953,16.413 L74.416,24.509 L74.417,24.507 C77.833,33.756 87.032,40.226 97.604,39.505 C109.735,38.677 119,28.275 119,16.115 L119,15.139 C119,13.482 120.343,12.139 122,12.139 L124,12.139 C125.104,12.139 126,11.244 126,10.139 L126,8.303 C126,7.199 125.104,6.303 124,6.303" id="glasses-03"></path>
        </g>
    </g>
</svg>