<?xml version="1.0" encoding="UTF-8"?>
<svg width="118px" height="42px" viewBox="0 0 118 42" version="1.1" xmlns="http://www.w3.org/2000/svg" xmlns:xlink="http://www.w3.org/1999/xlink">
    <title>accessories/glasses-02</title>
    <g id="Page-1" stroke="none" stroke-width="1" fill="none" fill-rule="evenodd">
        <g id="accessories/glasses-02" transform="translate(0.499900, 0.000000)" fill="#00004D">
            <path d="M106.529,0 L76.529,0 C72.146,0 68.431,2.824 67.081,6.748 C65.8,5.08 63.794,4 61.529,4 L55,4 C52.736,4 50.728,5.08 49.449,6.748 C48.097,2.824 44.383,0 40,0 L10,0 C4.477,0 0,4.478 0,10 L0,17 C0,30.808 11.193,42 25,42 C38.807,42 50,30.808 50,17 C50,13.134 53.134,10 57,10 L59.529,10 C63.395,10 66.529,13.134 66.529,17 C66.529,30.808 77.721,42 91.529,42 C105.336,42 116.529,30.808 116.529,17 L116.529,10 C116.529,4.478 112.051,0 106.529,0" id="glasses-02"></path>
        </g>
    </g>
</svg>