<?xml version="1.0" encoding="UTF-8"?>
<svg width="360px" height="390px" viewBox="0 0 360 390" version="1.1" xmlns="http://www.w3.org/2000/svg" xmlns:xlink="http://www.w3.org/1999/xlink">
    <title>head/hair/long/01</title>
    <g id="head/hair/long/01" stroke="none" stroke-width="1" fill="none" fill-rule="evenodd">
        <path d="M263,188.9999 C260.131,188.9999 257.408,188.3849 254.941,187.2969 C254.23,210.8829 242.627,231.7189 225,244.9749 L225,265.2759 L280,265.2759 L267.854,188.3819 C266.297,188.7709 264.678,188.9999 263,188.9999 M135,244.9754 C117.373,231.7184 105.769,210.8824 105.058,187.2964 C102.591,188.3844 99.869,188.9994 97,188.9994 C95.322,188.9994 93.703,188.7714 92.146,188.3814 L80,265.2764 L135,265.2764 L135,244.9754 Z M111.3198,155.0536 C130.1998,146.4726 145.9538,132.2216 156.3608,114.4406 C180.6408,137.6526 212.7048,152.7816 248.2408,155.5356 C251.6128,151.8426 256.3388,149.4096 261.6418,149.0506 L259.0178,132.4396 C257.3438,121.8376 253.5848,111.9316 248.1798,103.1446 C241.2368,91.8606 231.5678,82.4446 220.0948,75.7836 C208.3038,68.9386 194.6148,64.9996 179.9998,64.9996 C176.6048,64.9996 173.2618,65.2216 169.9798,65.6336 C159.1298,66.9956 148.9568,70.5296 139.9048,75.7836 C136.6808,77.6566 133.6038,79.7526 130.6848,82.0406 C123.2178,87.8926 116.8118,95.0326 111.8198,103.1446 C106.4148,111.9316 102.6558,121.8376 100.9818,132.4386 L100.9818,132.4396 L98.3548,149.0706 C103.4278,149.4116 107.9828,151.6276 111.3198,155.0536" id="long-01" fill="#00004D"></path>
    </g>
</svg>