<?xml version="1.0" encoding="UTF-8"?>
<svg width="360px" height="390px" viewBox="0 0 360 390" version="1.1" xmlns="http://www.w3.org/2000/svg" xmlns:xlink="http://www.w3.org/1999/xlink">
    <title>head/hair/long/02</title>
    <g id="head/hair/long/02" stroke="none" stroke-width="1" fill="none" fill-rule="evenodd">
        <path d="M135,245.0008 C117.356,231.7478 105.77,210.8908 105.058,187.2968 C102.591,188.3848 99.869,188.9998 97,188.9998 C96.325,188.9998 95.658,188.9648 95,188.8988 L95,286.2058 L135,274.9998 L135,245.0008 Z M254.9414,187.2967 C254.2304,210.8907 242.6434,231.7477 225.0004,245.0007 L225.0004,274.9997 L265.0004,286.2057 L265.0004,188.8997 C264.3414,188.9647 263.6744,188.9997 263.0004,188.9997 C260.1304,188.9997 257.4084,188.3847 254.9414,187.2967 M105,150.6756 L105,150.6756 C107.387,151.7186 109.527,153.2136 111.32,155.0536 C130.199,146.4726 145.953,132.2216 156.36,114.4406 C180.641,137.6536 212.705,152.7806 248.241,155.5366 C250.12,153.4786 252.411,151.8076 255,150.6756 C257.451,149.6036 260.153,148.9996 263,148.9996 C263.675,148.9996 264.342,149.0356 265,149.1016 L265,144.9996 C265,98.0556 226.944,59.9996 180,59.9996 C133.056,59.9996 95,98.0556 95,144.9996 L95,149.1016 C95.658,149.0356 96.325,148.9996 97,148.9996 C99.847,148.9996 102.549,149.6036 105,150.6756" id="long-02" fill="#00004D"></path>
    </g>
</svg>