<?xml version="1.0" encoding="UTF-8"?>
<svg width="360px" height="390px" viewBox="0 0 360 390" version="1.1" xmlns="http://www.w3.org/2000/svg" xmlns:xlink="http://www.w3.org/1999/xlink">
    <title>head/hair/long/03</title>
    <g id="head/hair/long/03" stroke="none" stroke-width="1" fill="none" fill-rule="evenodd">
        <path d="M263,188.9999 C260.131,188.9999 257.408,188.3849 254.941,187.2969 C254.23,210.8829 242.627,231.7189 225,244.9749 L225,265.2759 L280,265.2759 L267.854,188.3819 C266.297,188.7709 264.678,188.9999 263,188.9999 M135,244.9754 C117.373,231.7184 105.77,210.8824 105.058,187.2964 C102.591,188.3844 99.869,188.9994 97,188.9994 C95.322,188.9994 93.702,188.7714 92.146,188.3814 L80,265.2764 L135,265.2764 L135,244.9754 Z M247.0166,157.0145 C250.4096,152.4965 255.6596,149.4715 261.6416,149.0685 L261.6416,149.0505 L259.0176,132.4395 C257.3436,121.8375 253.5846,111.9315 248.1796,103.1445 C241.2376,91.8605 231.5676,82.4445 220.0946,75.7845 C208.3036,68.9385 194.6156,64.9995 179.9996,64.9995 C165.3836,64.9995 151.6966,68.9385 139.9056,75.7845 C128.4326,82.4445 118.7626,91.8605 111.8206,103.1445 C106.4146,111.9315 102.6566,121.8375 100.9826,132.4395 L98.3586,149.0505 L98.3586,149.0685 C104.3406,149.4715 109.5906,152.4965 112.9836,157.0145 L116.2276,140.7945 L198.1206,140.7945 L198.1206,111.9795 L207.9536,140.7945 L243.7726,140.7945 L247.0166,157.0145 Z" id="long-03" fill="#00004D"></path>
    </g>
</svg>