<?xml version="1.0" encoding="UTF-8"?>
<svg width="360px" height="390px" viewBox="0 0 360 390" version="1.1" xmlns="http://www.w3.org/2000/svg" xmlns:xlink="http://www.w3.org/1999/xlink">
    <title>head/hair/long/04</title>
    <g id="head/hair/long/04" stroke="none" stroke-width="1" fill="none" fill-rule="evenodd">
        <path d="M135,245.0008 C117.356,231.7478 105.77,210.8908 105.058,187.2968 C102.591,188.3848 99.869,188.9998 97,188.9998 C96.325,188.9998 95.658,188.9648 95,188.8988 L95,286.2058 L135,274.9998 L135,245.0008 Z M254.9414,187.2967 C254.2304,210.8907 242.6434,231.7477 225.0004,245.0007 L225.0004,274.9997 L265.0004,286.2057 L265.0004,188.8997 C264.3414,188.9647 263.6744,188.9997 263.0004,188.9997 C260.1304,188.9997 257.4084,188.3847 254.9414,187.2967 M247.7725,155.7957 L247.9565,155.8507 C251.6225,151.6597 256.9955,148.9997 263.0005,148.9997 C263.6745,148.9997 264.3415,149.0357 265.0005,149.1017 L265.0005,144.9997 C265.0005,98.0557 226.9445,59.9997 180.0005,59.9997 C133.0555,59.9997 95.0005,98.0557 95.0005,144.9997 L95.0005,149.1017 C95.6585,149.0357 96.3255,148.9997 97.0005,148.9997 C103.0015,148.9997 108.3705,151.6557 112.0365,155.8417 L112.2275,155.7957 L116.2275,135.7947 L198.1215,135.7947 L198.1215,106.9797 L207.9535,135.7947 L243.7725,135.7947 L247.7725,155.7957 Z" id="long-4" fill="#00004D"></path>
    </g>
</svg>