<?xml version="1.0" encoding="UTF-8"?>
<svg width="360px" height="390px" viewBox="0 0 360 390" version="1.1" xmlns="http://www.w3.org/2000/svg" xmlns:xlink="http://www.w3.org/1999/xlink">
    <title>head/hair/long/05</title>
    <g id="head/hair/long/05" stroke="none" stroke-width="1" fill="none" fill-rule="evenodd">
        <path d="M219.6983,69.8397 C219.8893,68.2517 220.0003,66.6397 220.0003,64.9997 C220.0003,42.9087 202.0923,24.9997 180.0003,24.9997 C157.9083,24.9997 140.0003,42.9087 140.0003,64.9997 C140.0003,66.6397 140.1103,68.2517 140.3023,69.8397 C113.3633,84.0987 95.0003,112.3987 95.0003,144.9997 C95.0003,146.3747 95.0453,147.7377 95.1143,149.0957 C95.7363,149.0367 96.3633,148.9997 97.0003,148.9997 C102.6183,148.9997 107.6873,151.3237 111.3203,155.0537 C130.1993,146.4727 145.9533,132.2217 156.3613,114.4407 C180.6403,137.6527 212.7053,152.7807 248.2413,155.5357 C251.8983,151.5287 257.1473,148.9997 263.0003,148.9997 C263.6363,148.9997 264.2633,149.0367 264.8843,149.0957 C264.9533,147.7377 265.0003,146.3747 265.0003,144.9997 C265.0003,112.3987 246.6363,84.0987 219.6983,69.8397" id="long-05" fill="#00004D"></path>
    </g>
</svg>