<?xml version="1.0" encoding="UTF-8"?>
<svg width="360px" height="390px" viewBox="0 0 360 390" version="1.1" xmlns="http://www.w3.org/2000/svg" xmlns:xlink="http://www.w3.org/1999/xlink">
    <title>head/hair/long/06</title>
    <g id="head/hair/long/06" stroke="none" stroke-width="1" fill="none" fill-rule="evenodd">
        <path d="M212.4414,66.4148 C213.6754,62.8358 214.3554,58.9988 214.3554,55.0008 C214.3554,35.6708 198.6854,20.0008 179.3554,20.0008 C160.0254,20.0008 144.3554,35.6708 144.3554,55.0008 C144.3554,59.2088 145.0994,63.2428 146.4614,66.9798 C116.1144,80.2358 95.0004,110.8918 95.0004,146.0648 L95.0004,149.0998 C95.6584,149.0338 96.3244,148.9978 97.0004,148.9978 C103.0014,148.9978 108.3704,151.6538 112.0364,155.8398 L112.2274,155.7938 L118.2274,119.7928 L123.7124,133.5078 C125.2324,137.3038 128.9094,139.7928 132.9984,139.7928 L227.0024,139.7928 C231.0904,139.7928 234.7674,137.3038 236.2874,133.5078 L241.7724,119.7928 L247.7724,155.7938 L247.9564,155.8488 C251.6224,151.6578 256.9944,148.9978 263.0004,148.9978 C263.6754,148.9978 264.3414,149.0338 265.0004,149.0998 L265.0004,144.9978 C265.0004,109.5438 243.2914,79.1638 212.4414,66.4148" id="long-6" fill="#00004D"></path>
    </g>
</svg>