<?xml version="1.0" encoding="UTF-8"?>
<svg width="360px" height="390px" viewBox="0 0 360 390" version="1.1" xmlns="http://www.w3.org/2000/svg" xmlns:xlink="http://www.w3.org/1999/xlink">
    <title>head/hair/long/07</title>
    <g id="head/hair/long/07" stroke="none" stroke-width="1" fill="none" fill-rule="evenodd">
        <path d="M105.0352,187.3075 C102.5752,188.3895 99.8602,188.9995 97.0002,188.9995 C86.6482,188.9995 78.1352,181.1365 77.1052,171.0575 C55.9262,176.8685 40.3592,196.2445 40.3592,219.2685 C40.3592,246.8825 62.7452,269.2685 90.3592,269.2685 C108.9552,269.2685 125.1682,259.1085 133.7822,244.0435 C116.8322,230.7565 105.7322,210.3455 105.0352,187.3075 M180,59.9998 C133.056,59.9998 95,98.0558 95,144.9998 C95,146.3748 95.047,147.7378 95.116,149.0958 C95.736,149.0368 96.364,148.9998 97,148.9998 C102.853,148.9998 108.102,151.5288 111.759,155.5358 C147.295,152.7808 179.359,137.6518 203.639,114.4398 C214.047,132.2218 229.801,146.4728 248.68,155.0538 C252.313,151.3238 257.382,148.9998 263,148.9998 C263.637,148.9998 264.264,149.0368 264.886,149.0958 C264.955,147.7378 265,146.3748 265,144.9998 C265,98.0558 226.944,59.9998 180,59.9998" id="long-07" fill="#00004D"></path>
    </g>
</svg>