<?xml version="1.0" encoding="UTF-8"?>
<svg width="360px" height="390px" viewBox="0 0 360 390" version="1.1" xmlns="http://www.w3.org/2000/svg" xmlns:xlink="http://www.w3.org/1999/xlink">
    <title>head/hair/long/08</title>
    <g id="head/hair/long/08" stroke="none" stroke-width="1" fill="none" fill-rule="evenodd">
        <path d="M274.3555,70.0008 C274.3555,53.4318 260.9235,40.0008 244.3555,40.0008 C227.7875,40.0008 214.3555,53.4318 214.3555,70.0008 C214.3555,70.9448 214.4045,71.8778 214.4905,72.7998 C204.0465,67.8018 192.3515,64.9978 180.0005,64.9978 C167.1055,64.9978 154.9345,68.0668 144.1475,73.4858 C144.2805,72.3418 144.3555,71.1808 144.3555,70.0008 C144.3555,53.4318 130.9235,40.0008 114.3555,40.0008 C97.7875,40.0008 84.3555,53.4318 84.3555,70.0008 C84.3555,86.4038 97.5225,99.7238 113.8635,99.9878 C105.1185,112.8128 100.0005,128.3058 100.0005,144.9978 L100.0005,149.2468 C104.7775,149.9678 108.9955,152.3668 112.0365,155.8398 L112.2275,155.7928 L116.2275,135.7928 L198.1215,135.7928 L198.1215,106.9778 L207.9535,135.7928 L243.7725,135.7928 L247.7725,155.7928 L247.9565,155.8488 C250.9985,152.3708 255.2185,149.9688 260.0005,149.2468 L260.0005,144.9978 C260.0005,128.2868 254.8695,112.7778 246.1075,99.9448 C261.8595,99.0378 274.3555,85.9798 274.3555,70.0008" id="long-08" fill="#00004D"></path>
    </g>
</svg>