<?xml version="1.0" encoding="UTF-8"?>
<svg width="360px" height="390px" viewBox="0 0 360 390" version="1.1" xmlns="http://www.w3.org/2000/svg" xmlns:xlink="http://www.w3.org/1999/xlink">
    <title>head/hair/long/09</title>
    <g id="head/hair/long/09" stroke="none" stroke-width="1" fill="none" fill-rule="evenodd">
        <path d="M180,28.9998 C113.726,28.9998 60,82.7268 60,148.9998 C60,199.3588 91.024,242.4658 135,260.2688 L135,245.0008 C117.356,231.7478 105.77,210.8908 105.059,187.2968 C102.592,188.3848 99.869,188.9998 97,188.9998 C85.954,188.9998 77,180.0458 77,168.9998 C77,157.9548 85.954,148.9998 97,148.9998 C98.068,148.9998 99.108,149.1108 100.131,149.2738 C101.494,149.4888 102.807,149.8468 104.063,150.3198 C104.247,150.3908 104.434,150.4548 104.615,150.5288 C106.937,151.4848 109.042,152.8598 110.828,154.5718 C120.041,145.3238 127.463,134.2898 132.51,122.0228 C146.638,129.6618 162.813,133.9998 180,133.9998 C197.187,133.9998 213.362,129.6618 227.49,122.0228 C232.537,134.2898 239.959,145.3238 249.172,154.5718 C250.958,152.8598 253.063,151.4838 255.387,150.5288 C255.566,150.4548 255.751,150.3918 255.934,150.3218 C257.191,149.8478 258.506,149.4888 259.87,149.2738 C260.893,149.1108 261.932,148.9998 263,148.9998 C274.045,148.9998 283,157.9548 283,168.9998 C283,180.0458 274.045,188.9998 263,188.9998 C260.131,188.9998 257.408,188.3848 254.941,187.2968 C254.23,210.8908 242.643,231.7478 225,245.0008 L225,260.2688 C268.975,242.4658 300,199.3588 300,148.9998 C300,82.7268 246.273,28.9998 180,28.9998" id="long-09" fill="#00004D"></path>
    </g>
</svg>