<?xml version="1.0" encoding="UTF-8"?>
<svg width="360px" height="390px" viewBox="0 0 360 390" version="1.1" xmlns="http://www.w3.org/2000/svg" xmlns:xlink="http://www.w3.org/1999/xlink">
    <title>head/hair/long/10</title>
    <g id="head/hair/long/10" stroke="none" stroke-width="1" fill="none" fill-rule="evenodd">
        <path d="M135,245.0008 C117.356,231.7468 105.77,210.8908 105.059,187.2968 C102.592,188.3848 99.869,188.9998 97,188.9998 C92.926,188.9998 89.143,187.7748 85.981,185.6838 C76.633,189.3028 70,198.3738 70,208.9998 C70,220.0228 77.137,229.3728 87.04,232.6978 C84.832,235.9138 83.535,239.8048 83.535,243.9998 C83.535,255.0458 92.489,263.9998 103.535,263.9998 C106.471,263.9998 109.249,263.3518 111.761,262.2158 C111.75,262.4788 111.721,262.7348 111.721,262.9998 C111.721,269.6708 115,275.5628 120.02,279.1968 L135,274.9998 L135,245.0008 Z M254.9424,187.2967 C254.2304,210.8907 242.6434,231.7477 225.0004,245.0007 L225.0004,274.9997 L239.9804,279.1967 C245.0004,275.5637 248.2794,269.6707 248.2794,262.9997 C248.2794,262.7347 248.2504,262.4787 248.2394,262.2157 C250.7504,263.3517 253.5294,263.9997 256.4644,263.9997 C267.5104,263.9997 276.4644,255.0457 276.4644,243.9997 C276.4644,239.8047 275.1684,235.9137 272.9604,232.6977 C282.8634,229.3727 290.0004,220.0237 290.0004,208.9997 C290.0004,198.3737 283.3674,189.3027 274.0184,185.6837 C270.8584,187.7757 267.0744,188.9997 263.0004,188.9997 C260.1304,188.9997 257.4084,188.3847 254.9424,187.2967 M263,148.9999 C263.676,148.9999 264.342,149.0359 265,149.1019 L265,144.9999 C265,98.0559 226.944,59.9999 180,59.9999 C133.056,59.9999 95,98.0559 95,144.9999 L95,149.1019 C95.658,149.0359 96.324,148.9999 97,148.9999 C103.847,148.9999 109.885,152.4449 113.49,157.6909 C123.729,153.8209 131.296,144.5109 132.662,133.2819 C135.895,135.0149 139.588,135.9999 143.512,135.9999 C152.891,135.9999 160.953,130.3829 164.533,122.3319 C168.565,126.1519 174.007,128.4999 180,128.4999 C185.993,128.4999 191.435,126.1519 195.467,122.3319 C199.047,130.3829 207.109,135.9999 216.488,135.9999 C220.412,135.9999 224.105,135.0149 227.338,133.2819 C228.704,144.5109 236.271,153.8209 246.51,157.6909 C250.115,152.4449 256.153,148.9999 263,148.9999" id="long-10" fill="#00004D"></path>
    </g>
</svg>