<?xml version="1.0" encoding="UTF-8"?>
<svg width="360px" height="390px" viewBox="0 0 360 390" version="1.1" xmlns="http://www.w3.org/2000/svg" xmlns:xlink="http://www.w3.org/1999/xlink">
    <title>head/hair/long/11</title>
    <g id="head/hair/long/11" stroke="none" stroke-width="1" fill="none" fill-rule="evenodd">
        <path d="M93.2637,286.6922 L134.9997,275.0002 L134.9997,244.9742 C117.3727,231.7182 105.7697,210.8822 105.0587,187.2962 C102.5917,188.3842 99.8687,189.0002 96.9997,189.0002 C95.2067,189.0002 93.4787,188.7422 91.8257,188.2992 L75.0767,294.3282 C80.7657,291.0682 86.8637,288.4852 93.2637,286.6922 M263,188.9999 C260.131,188.9999 257.408,188.3849 254.941,187.2969 C254.23,210.8829 242.627,231.7199 225,244.9759 L225,274.9999 L266.736,286.6919 C273.137,288.4849 279.234,291.0679 284.923,294.3279 L268.175,188.2999 C266.521,188.7419 264.793,188.9999 263,188.9999 M111.3203,155.0536 C130.1993,146.4726 145.9533,132.2216 156.3603,114.4406 C180.6403,137.6526 212.7053,152.7816 248.2413,155.5356 C251.6133,151.8426 256.3393,149.4096 261.6413,149.0506 L259.0173,132.4396 C257.3433,121.8376 253.5853,111.9316 248.1793,103.1446 C241.2373,91.8606 231.5673,82.4446 220.0943,75.7836 C208.3033,68.9386 194.6153,64.9996 180.0003,64.9996 C176.6043,64.9996 173.2623,65.2216 169.9793,65.6336 C159.1303,66.9956 148.9573,70.5296 139.9053,75.7836 C136.6803,77.6566 133.6043,79.7526 130.6843,82.0406 C123.2173,87.8926 116.8113,95.0326 111.8203,103.1446 C106.4153,111.9316 102.6563,121.8376 100.9823,132.4386 L100.9823,132.4396 L98.3553,149.0706 C103.4273,149.4116 107.9823,151.6276 111.3203,155.0536" id="long-11" fill="#00004D"></path>
    </g>
</svg>