<?xml version="1.0" encoding="UTF-8"?>
<svg width="360px" height="390px" viewBox="0 0 360 390" version="1.1" xmlns="http://www.w3.org/2000/svg" xmlns:xlink="http://www.w3.org/1999/xlink">
    <title>head/hair/long/12</title>
    <g id="head/hair/long/12" stroke="none" stroke-width="1" fill="none" fill-rule="evenodd">
        <path d="M93.2627,286.6922 L134.9997,275.0002 L134.9997,244.9742 C117.3727,231.7182 105.7687,210.8822 105.0577,187.2962 C102.5907,188.3842 99.8687,189.0002 96.9997,189.0002 C95.2067,189.0002 93.4787,188.7422 91.8257,188.2992 L75.0767,294.3282 C80.7657,291.0682 86.8627,288.4852 93.2627,286.6922 M263,188.9999 C260.131,188.9999 257.408,188.3849 254.941,187.2969 C254.23,210.8829 242.627,231.7199 225,244.9759 L225,274.9999 L266.736,286.6919 C273.137,288.4849 279.234,291.0679 284.923,294.3279 L268.175,188.2999 C266.521,188.7419 264.793,188.9999 263,188.9999 M247.0156,157.0145 C250.4096,152.4965 255.6596,149.4715 261.6416,149.0685 L261.6416,149.0505 L259.0176,132.4395 C257.3436,121.8375 253.5836,111.9315 248.1796,103.1445 C241.2376,91.8605 231.5676,82.4445 220.0946,75.7845 C208.3036,68.9385 194.6156,64.9995 179.9996,64.9995 C165.3846,64.9995 151.6966,68.9385 139.9046,75.7845 C128.4326,82.4445 118.7626,91.8605 111.8206,103.1445 C106.4146,111.9315 102.6566,121.8375 100.9826,132.4395 L98.3576,149.0505 L98.3576,149.0685 C104.3406,149.4715 109.5896,152.4965 112.9836,157.0145 L116.2276,140.7945 L198.1206,140.7945 L198.1206,111.9795 L207.9526,140.7945 L243.7726,140.7945 L247.0156,157.0145 Z" id="long-12" fill="#00004D"></path>
    </g>
</svg>