<?xml version="1.0" encoding="UTF-8"?>
<svg width="360px" height="390px" viewBox="0 0 360 390" version="1.1" xmlns="http://www.w3.org/2000/svg" xmlns:xlink="http://www.w3.org/1999/xlink">
    <title>head/hair/long/13</title>
    <g id="head/hair/long/13" stroke="none" stroke-width="1" fill="none" fill-rule="evenodd">
        <path d="M263,148.9999 C265.114,148.9999 267.15,149.3339 269.062,149.9409 C269.904,148.3079 270.395,146.4619 270.395,144.4939 C270.395,140.0309 267.952,136.1449 264.336,134.0779 C269.679,130.9559 273.278,125.1749 273.278,118.5409 C273.278,109.5179 266.631,102.0659 257.972,100.7639 C259.347,98.3099 260.139,95.4839 260.139,92.4709 C260.139,83.0819 252.527,75.4709 243.139,75.4709 C239.641,75.4709 236.392,76.5299 233.689,78.3409 C233.691,78.2209 233.698,78.1029 233.698,77.9819 C233.698,65.8319 223.848,55.9819 211.698,55.9819 C206.43,55.9819 201.596,57.8369 197.807,60.9259 C194.498,54.4459 187.775,49.9999 180,49.9999 C172.225,49.9999 165.502,54.4459 162.193,60.9259 C158.404,57.8369 153.57,55.9819 148.302,55.9819 C136.152,55.9819 126.302,65.8319 126.302,77.9819 C126.302,78.1029 126.309,78.2209 126.311,78.3409 C123.608,76.5299 120.359,75.4709 116.861,75.4709 C107.473,75.4709 99.861,83.0819 99.861,92.4709 C99.861,95.4839 100.653,98.3099 102.028,100.7639 C93.369,102.0659 86.722,109.5179 86.722,118.5409 C86.722,125.1749 90.321,130.9559 95.664,134.0779 C92.048,136.1449 89.605,140.0309 89.605,144.4939 C89.605,146.4609 90.094,148.3069 90.932,149.9429 C92.847,149.3339 94.884,148.9999 97,148.9999 C103.847,148.9999 109.885,152.4449 113.49,157.6909 C123.729,153.8209 131.296,144.5109 132.662,133.2819 C135.895,135.0149 139.588,135.9999 143.512,135.9999 C152.891,135.9999 160.953,130.3829 164.533,122.3319 C168.565,126.1519 174.007,128.4999 180,128.4999 C185.993,128.4999 191.435,126.1519 195.467,122.3319 C199.047,130.3829 207.109,135.9999 216.488,135.9999 C220.412,135.9999 224.105,135.0149 227.338,133.2819 C228.704,144.5109 236.271,153.8209 246.51,157.6909 C250.115,152.4449 256.153,148.9999 263,148.9999" id="long-13" fill="#00004D"></path>
    </g>
</svg>