<?xml version="1.0" encoding="UTF-8"?>
<svg width="150px" height="108px" viewBox="0 0 150 108" version="1.1" xmlns="http://www.w3.org/2000/svg" xmlns:xlink="http://www.w3.org/1999/xlink">
    <title>facial hair/beard-medium</title>
    <g id="Page-1" stroke="none" stroke-width="1" fill="none" fill-rule="evenodd">
        <g id="facial-hair/beard-medium" transform="translate(0.000400, 0.000200)" fill="#CCCCCC">
            <path d="M92.857,50.03 L85.04,54.567 C78.832,58.171 71.168,58.171 64.96,54.567 L57.142,50.03 C52.996,47.623 51.141,42.612 52.721,38.086 L54.063,34.24 C54.624,32.634 56.139,31.557 57.84,31.557 L92.159,31.557 C93.86,31.557 95.375,32.634 95.935,34.24 L97.278,38.086 C98.858,42.612 97.003,47.623 92.857,50.03 M143.221,0 L138.046,16.887 C135.223,26.1 128.147,33.396 119.025,36.5 L109.403,39.773 L105.555,32.186 C102.147,25.467 95.253,21.233 87.718,21.233 L75,21.233 L62.281,21.233 C54.747,21.233 47.852,25.467 44.444,32.186 L40.596,39.773 L30.974,36.5 C21.852,33.396 14.776,26.1 11.953,16.887 L6.778,0 C4.896,2.068 2.597,3.747 0,4.883 L0,38.528 C0,62.259 13.986,83.759 35.678,93.379 L58.786,103.624 C69.11,108.202 80.889,108.202 91.213,103.624 L114.32,93.379 C136.013,83.759 150,62.259 150,38.528 L150,4.883 C147.402,3.747 145.103,2.068 143.221,0" id="beard-medium"></path>
        </g>
    </g>
</svg>