<?xml version="1.0" encoding="UTF-8"?>
<svg width="154px" height="153px" viewBox="0 0 154 153" version="1.1" xmlns="http://www.w3.org/2000/svg" xmlns:xlink="http://www.w3.org/1999/xlink">
    <title>facial hair/beard-long</title>
    <g id="Page-1" stroke="none" stroke-width="1" fill="none" fill-rule="evenodd">
        <g id="facial-hair/beard-long" transform="translate(0.000400, -0.000200)" fill="#00004D">
            <path d="M94.485,50.03 L86.669,54.567 C80.46,58.171 72.796,58.171 66.587,54.567 L58.77,50.03 C54.624,47.623 52.769,42.612 54.349,38.086 L55.692,34.24 C56.253,32.634 57.767,31.557 59.467,31.557 L93.787,31.557 C95.488,31.557 97.003,32.634 97.563,34.24 L98.906,38.086 C100.486,42.612 98.631,47.623 94.485,50.03 M144.849,0 L139.674,16.887 C136.851,26.1 129.775,33.396 120.653,36.5 L111.031,39.773 L107.183,32.186 C103.775,25.467 96.88,21.233 89.346,21.233 L76.628,21.233 L63.909,21.233 C56.376,21.233 49.48,25.467 46.072,32.186 L42.224,39.773 L32.602,36.5 C23.48,33.396 16.404,26.1 13.581,16.887 L8.406,0 C6.139,2.49 3.262,4.406 0,5.504 L7.241,62.835 C10.081,85.315 20.471,106.165 36.711,121.968 L62.678,147.239 C70.443,154.796 82.811,154.796 90.576,147.239 L116.545,121.968 C132.784,106.165 143.173,85.315 146.013,62.835 L153.256,5.503 C149.993,4.406 147.116,2.49 144.849,0" id="beard-long"></path>
        </g>
    </g>
</svg>