<?xml version="1.0" encoding="UTF-8"?>
<svg width="175px" height="148px" viewBox="0 0 175 148" version="1.1" xmlns="http://www.w3.org/2000/svg" xmlns:xlink="http://www.w3.org/1999/xlink">
    <title>facial hair/beard-huge</title>
    <g id="Page-1" stroke="none" stroke-width="1" fill="none" fill-rule="evenodd">
        <g id="facial-hair/beard-huge" transform="translate(0.499973, 0.000400)" fill="#00004D">
            <path d="M105.066527,50.03 L97.2495266,54.567 C91.0415266,58.171 83.3775266,58.171 77.1695266,54.567 L69.3515266,50.03 C65.2055266,47.623 63.3505266,42.612 64.9305266,38.086 L66.2735266,34.24 C66.8345266,32.634 68.3485266,31.557 70.0495266,31.557 L104.368527,31.557 C106.069527,31.557 107.584527,32.634 108.144527,34.24 L109.487527,38.086 C111.067527,42.612 109.212527,47.623 105.066527,50.03 L105.066527,50.03 Z M162.744527,5.103 C159.928527,3.969 157.441527,2.209 155.430527,0 L150.255527,16.887 C147.432527,26.1 140.356527,33.396 131.234527,36.5 L121.612527,39.773 L117.764527,32.186 C114.356527,25.467 107.462527,21.233 99.9275266,21.233 L87.2095266,21.233 L74.4905266,21.233 C66.9565266,21.233 60.0615266,25.467 56.6535266,32.186 L52.8055266,39.773 L43.1835266,36.5 C34.0615266,33.396 26.9855266,26.1 24.1625266,16.887 L18.9875266,0 C16.9765266,2.209 14.4895266,3.969 11.6725266,5.104 L1.29152665,54.418 C-4.11347335,80.086 7.78352665,106.289 30.6645266,119.116 L77.4285266,145.331 C83.5045266,148.737 90.9145266,148.737 96.9885266,145.331 L143.753527,119.116 C166.633527,106.289 178.530527,80.086 173.127527,54.418 L162.744527,5.103 Z" id="beard-huge"></path>
        </g>
    </g>
</svg>