<?xml version="1.0" encoding="UTF-8"?>
<svg width="69px" height="16px" viewBox="0 0 69 16" version="1.1" xmlns="http://www.w3.org/2000/svg" xmlns:xlink="http://www.w3.org/1999/xlink">
    <title>facial hair/moustache-handlebar</title>
    <g id="Page-1" stroke="none" stroke-width="1" fill="none" fill-rule="evenodd">
        <g id="facial-hair/moustache-handlebar" transform="translate(-0.000158, 0.000050)" fill="#00004D">
            <path d="M66.8825582,3.02284995 L52.3865582,5.42484995 L41.8645582,0.638849946 C41.3295582,0.395849946 40.7555582,0.214849946 40.1505582,0.108849946 C37.8425582,-0.298150054 35.6045582,0.461849946 34.0255582,1.95984995 C32.4455582,0.461849946 30.2075582,-0.298150054 27.9005582,0.108849946 C27.2945582,0.214849946 26.7205582,0.395849946 26.1855582,0.638849946 L15.6635582,5.42484995 L1.16755822,3.02284995 C0.21655822,2.86584995 -0.38544178,4.01084995 0.28455822,4.70484995 L5.04855822,9.63284995 C9.66655822,14.4128499 16.3575582,16.5858499 22.9035582,15.4308499 L30.3695582,14.1148499 C31.7965582,13.8628499 33.0475582,13.2008499 34.0255582,12.2718499 C35.0025582,13.2008499 36.2535582,13.8628499 37.6805582,14.1148499 L45.1475582,15.4308499 C51.6935582,16.5858499 58.3835582,14.4128499 63.0015582,9.63284995 L67.7655582,4.70484995 C68.4355582,4.01084995 67.8335582,2.86584995 66.8825582,3.02284995" id="moustache-handlebar"></path>
        </g>
    </g>
</svg>