<?xml version="1.0" encoding="UTF-8"?>
<svg width="360px" height="390px" viewBox="0 0 360 390" version="1.1" xmlns="http://www.w3.org/2000/svg" xmlns:xlink="http://www.w3.org/1999/xlink">
    <title>head/accessories/cap</title>
    <g id="head/accessories/cap" stroke="none" stroke-width="1" fill="none" fill-rule="evenodd">
        <g id="cap" transform="translate(103.579416, 53.142800)">
            <path d="M112.344384,14.688 L90.369384,6.511 C88.423384,5.788 86.433384,5.229 84.420384,4.819 L84.420384,4.62 C84.420384,2.069 82.352384,1.13686838e-13 79.801384,1.13686838e-13 L73.039384,1.13686838e-13 C70.489384,1.13686838e-13 68.420384,2.069 68.420384,4.62 L68.420384,4.819 C66.407384,5.229 64.417384,5.788 62.471384,6.511 L40.496384,14.688 C17.003384,23.43 1.42038397,45.855 1.42038397,70.921 L1.42038397,87.856 L76.420384,77.856 L151.420384,87.856 L151.420384,70.921 C151.420384,45.855 135.837384,23.43 112.344384,14.688" id="Fill-1" fill="#2384F5"></path>
            <path d="M76.470384,6.0005 C76.470384,6.0005 31.288384,17.0665 31.288384,77.8225" id="Stroke-4" stroke="#00004D" stroke-width="2" stroke-linecap="round" stroke-linejoin="round"></path>
            <path d="M76.470384,6.0005 C76.470384,6.0005 96.786384,10.9765 110.172384,32.5745" id="Stroke-6" stroke="#00004D" stroke-width="2" stroke-linecap="round" stroke-linejoin="round"></path>
            <path d="M1.46068397,87.8316 C12.512684,81.0076 24.580684,75.9436 37.319684,72.5146 C50.057684,69.1126 63.351684,67.5966 76.420684,67.6005921 C89.489684,67.5966 102.783684,69.1126 115.521684,72.5146 C128.260684,75.9436 140.328684,81.0076 151.380684,87.8316 C152.826684,88.7256 153.275684,90.6226 152.382684,92.0696 C151.751684,93.0916 150.619684,93.6156 149.500684,93.5196 L149.461684,93.5166 C143.050684,92.9616 136.834684,92.0686 130.679684,91.3096 C124.530684,90.5226 118.475684,89.7836 112.454684,89.2256 C100.428684,88.0526 88.521684,87.6016 76.420684,87.6005921 C64.319684,87.6016 52.412684,88.0526 40.386684,89.2256 C34.365684,89.7836 28.310684,90.5226 22.161684,91.3096 C16.006684,92.0686 9.79068397,92.9616 3.37968397,93.5166 L3.34468397,93.5196 C1.64968397,93.6666 0.157683973,92.4116 0.0116839729,90.7176 C-0.0923160271,89.5206 0.506683973,88.4246 1.46068397,87.8316" id="Fill-8" fill="#00004D"></path>
        </g>
    </g>
</svg>