<?xml version="1.0" encoding="UTF-8"?>
<svg width="360px" height="390px" viewBox="0 0 360 390" version="1.1" xmlns="http://www.w3.org/2000/svg" xmlns:xlink="http://www.w3.org/1999/xlink">
    <title>head/accessories/hat</title>
    <g id="head/accessories/hat" stroke="none" stroke-width="1" fill="none" fill-rule="evenodd">
        <path d="M240.1524,94.1205 L229.8864,72.7085 C223.2334,58.8295 209.2084,49.9995 193.8174,49.9995 L166.1824,49.9995 C150.7924,49.9995 136.7664,58.8295 130.1134,72.7085 L119.8484,94.1205 C61.2954,104.5215 20.0004,129.6495 20.0004,159.0005 C20.0004,187.6015 59.2144,212.1925 115.3994,223.0555 C109.1814,212.5135 105.4514,200.3275 105.0584,187.2965 C102.5914,188.3855 99.8694,189.0005 97.0004,189.0005 C85.9544,189.0005 77.0004,180.0455 77.0004,169.0005 C77.0004,157.9545 85.9544,149.0005 97.0004,149.0005 C99.8464,149.0005 102.5484,149.6035 105.0004,150.6755 L105.0004,147.0005 C105.0004,131.0685 138.5784,118.1535 180.0004,118.1535 C221.4214,118.1535 255.0004,131.0685 255.0004,147.0005 L255.0004,150.6755 C257.4514,149.6035 260.1534,149.0005 263.0004,149.0005 C274.0464,149.0005 283.0004,157.9545 283.0004,169.0005 C283.0004,180.0455 274.0464,189.0005 263.0004,189.0005 C260.1314,189.0005 257.4084,188.3855 254.9414,187.2965 C254.5484,200.3275 250.8184,212.5135 244.5994,223.0555 C300.7854,212.1925 340.0004,187.6015 340.0004,159.0005 C340.0004,129.6495 298.7054,104.5215 240.1524,94.1205" id="hat" fill="#844123"></path>
        <path d="M119.8472,94.1156 C138.4172,90.8166 158.7232,89.0006 180.0002,89.0006 C193.4522,89.0006 206.5162,89.7256 219.0002,91.0946" id="Stroke-4" stroke="#00004D" stroke-width="2" stroke-linecap="round" stroke-linejoin="round"></path>
    </g>
</svg>