<?xml version="1.0" encoding="UTF-8"?>
<svg width="80px" height="60px" viewBox="0 0 80 60" version="1.1" xmlns="http://www.w3.org/2000/svg" xmlns:xlink="http://www.w3.org/1999/xlink">
    <title>mouth/tonge</title>
    <g id="mouth/tonge" stroke="none" stroke-width="1" fill="none" fill-rule="evenodd">
        <g id="Group-13" transform="translate(15.000000, 9.500000)">
            <path d="M50.0001,-0.0002 C50.0001,13.8078 38.8071,24.9998 25.0001,24.9998 C11.1931,24.9998 0.0001,13.8078 0.0001,-0.0002 L50.0001,-0.0002 Z" id="Fill-7" fill="#AE1328"></path>
            <path d="M40.0001,7.9998 L10.0001,7.9998 C7.2381,7.9998 5.0001,5.7618 5.0001,2.9998 L5.0001,-0.0002 L45.0001,-0.0002 L45.0001,2.9998 C45.0001,5.7618 42.7621,7.9998 40.0001,7.9998" id="Fill-9" fill="#FFFFFF"></path>
            <path d="M25.0001,40.7937 L25.0001,40.7937 C17.2721,40.7937 11.0091,34.5297 11.0091,26.8027 L11.0091,20.7207 C11.0091,16.3027 14.5911,12.7207 19.0091,12.7207 L30.9911,12.7207 C35.4101,12.7207 38.9911,16.3027 38.9911,20.7207 L38.9911,26.8027 C38.9911,34.5297 32.7281,40.7937 25.0001,40.7937" id="Fill-11" fill="#FB344F"></path>
        </g>
    </g>
</svg>